<svg width="39" height="39" viewBox="0 0 39 39" fill="none" xmlns="http://www.w3.org/2000/svg">
<path d="M34.125 0H4.875C2.18644 0 0 2.18644 0 4.875V37.7812C0 38.2395 0.255938 38.6612 0.665438 38.8684C0.840937 38.9561 1.03106 39 1.21875 39C1.47225 39 1.72575 38.9196 1.93781 38.7636L11.6098 31.6875H34.125C36.8136 31.6875 39 29.5011 39 26.8125V4.875C39 2.18644 36.8136 0 34.125 0ZM9.75 17.0625C8.4045 17.0625 7.3125 15.9705 7.3125 14.625C7.3125 13.2795 8.4045 12.1875 9.75 12.1875C11.0955 12.1875 12.1875 13.2795 12.1875 14.625C12.1875 15.9705 11.0955 17.0625 9.75 17.0625ZM19.5 17.0625C18.1545 17.0625 17.0625 15.9705 17.0625 14.625C17.0625 13.2795 18.1545 12.1875 19.5 12.1875C20.8455 12.1875 21.9375 13.2795 21.9375 14.625C21.9375 15.9705 20.8455 17.0625 19.5 17.0625ZM29.25 17.0625C27.9045 17.0625 26.8125 15.9705 26.8125 14.625C26.8125 13.2795 27.9045 12.1875 29.25 12.1875C30.5955 12.1875 31.6875 13.2795 31.6875 14.625C31.6875 15.9705 30.5955 17.0625 29.25 17.0625Z" fill="white"/>
</svg>
