<svg width="26" height="30" viewBox="0 0 26 30" fill="none" xmlns="http://www.w3.org/2000/svg">
<path d="M18.3689 16.9483C19.5962 15.9838 20.5882 14.7529 21.2699 13.3486C21.9516 11.9444 22.3052 10.4036 22.3039 8.8426H25.2514C25.2529 10.9212 24.7652 12.9711 23.8276 14.8262C22.89 16.6814 21.529 18.2899 19.8545 19.5215L23.5802 25.9737C23.971 26.6507 24.077 27.4552 23.8746 28.2103C23.6723 28.9653 23.1784 29.6091 22.5014 30L17.3034 20.9982C15.6272 21.7315 13.8171 22.1089 11.9875 22.1065C10.158 22.1089 8.34784 21.7315 6.67166 20.9982L1.47369 30C0.796717 29.6091 0.302745 28.9653 0.100433 28.2103C-0.10188 27.4552 0.00403838 26.6507 0.394888 25.9737L7.85657 13.0487C7.11227 12.3169 6.57551 11.4007 6.30111 10.3936C6.0267 9.38649 6.02449 8.32461 6.29468 7.31637C6.56487 6.30814 7.09779 5.38967 7.83903 4.65475C8.58026 3.91983 9.50326 3.39478 10.5138 3.13323V0H13.4613V3.13323C14.4718 3.39478 15.3948 3.91983 16.136 4.65475C16.8773 5.38967 17.4102 6.30814 17.6804 7.31637C17.9506 8.32461 17.9484 9.38649 17.674 10.3936C17.3996 11.4007 16.8628 12.3169 16.1185 13.0487L18.3689 16.9483ZM15.8193 18.425L13.5674 14.524C12.5347 14.8107 11.4434 14.8107 10.4106 14.524L8.15869 18.425C9.3436 18.8981 10.6346 19.159 11.989 19.159C13.3419 19.159 14.6344 18.8981 15.8193 18.425ZM11.9875 11.7901C12.7693 11.7901 13.519 11.4796 14.0718 10.9268C14.6245 10.3741 14.9351 9.62434 14.9351 8.8426C14.9351 8.06087 14.6245 7.31115 14.0718 6.75838C13.519 6.20561 12.7693 5.89507 11.9875 5.89507C11.2058 5.89507 10.4561 6.20561 9.90332 6.75838C9.35055 7.31115 9.04 8.06087 9.04 8.8426C9.04 9.62434 9.35055 10.3741 9.90332 10.9268C10.4561 11.4796 11.2058 11.7901 11.9875 11.7901Z" fill="#F8E08E"/>
</svg>
