<svg width="30" height="30" viewBox="0 0 30 30" fill="none" xmlns="http://www.w3.org/2000/svg">
<path d="M22.8227 5.12238C22.8227 4.41855 22.548 3.75598 22.0502 3.25816L19.5646 0.7725C19.0737 0.281543 18.3768 0 17.6833 0H17.5322V5.27344H22.8228L22.8227 5.12238Z" fill="#F8E08E"/>
<path d="M16.051 18.1369C16.2192 17.6262 16.5128 17.1507 16.8956 16.7654L22.8465 10.8384V7.03125H16.6707C16.1849 7.03125 15.8203 6.63814 15.8203 6.15234V0H2.63672C1.18277 0 0 1.18277 0 2.63672V27.3633C0 28.8172 1.18277 30 2.63672 30H20.1863C21.6403 30 22.8465 28.8172 22.8465 27.3633V20.8037L21.8806 21.7461C21.4893 22.134 21.0309 22.4164 20.5142 22.5889L17.7196 23.5219L17.2938 23.5451C16.59 23.5451 15.924 23.2027 15.5103 22.6293C15.1 22.0586 14.9885 21.3187 15.2116 20.6501L16.051 18.1369ZM4.39453 15.8203H13.1551C13.6409 15.8203 14.034 16.2134 14.034 16.6992C14.034 17.185 13.6409 17.5781 13.1551 17.5781H4.39453C3.90873 17.5781 3.51562 17.185 3.51562 16.6992C3.51562 16.2134 3.90873 15.8203 4.39453 15.8203ZM3.51562 13.1836C3.51562 12.6978 3.90873 12.3047 4.39453 12.3047H13.1551C13.6409 12.3047 14.034 12.6978 14.034 13.1836C14.034 13.6694 13.6409 14.0625 13.1551 14.0625H4.39453C3.90873 14.0625 3.51562 13.6694 3.51562 13.1836ZM3.51562 20.2148C3.51562 19.729 3.90873 19.3359 4.39453 19.3359H13.1551C13.6409 19.3359 14.034 19.729 14.034 20.2148C14.034 20.7006 13.6409 21.0938 13.1551 21.0938H4.39453C3.90873 21.0938 3.51562 20.7006 3.51562 20.2148ZM16.6707 24.6094C17.1565 24.6094 17.5496 25.0025 17.5496 25.4883C17.5496 25.9741 17.1565 26.3672 16.6707 26.3672H11.3972C10.9114 26.3672 10.5183 25.9741 10.5183 25.4883C10.5183 25.0025 10.9114 24.6094 11.3972 24.6094H16.6707ZM4.39453 10.5469C3.90873 10.5469 3.51562 10.1538 3.51562 9.66797C3.51562 9.18217 3.90873 8.78906 4.39453 8.78906H16.6707C17.1565 8.78906 17.5496 9.18217 17.5496 9.66797C17.5496 10.1538 17.1565 10.5469 16.6707 10.5469H4.39453Z" fill="#F8E08E"/>
<path d="M17.6427 18.9145L16.8781 21.2085C16.7635 21.5522 17.0905 21.8791 17.4341 21.7643L19.7268 20.9986L17.6427 18.9145Z" fill="#F8E08E"/>
<path d="M24.4696 11.6781L18.6812 17.4665L21.1775 19.9629C22.4858 18.6544 25.0314 16.1085 26.9657 14.1742L24.4696 11.6781Z" fill="#F8E08E"/>
<path d="M29.4838 9.15726C29.1749 8.84654 28.72 8.66888 28.2376 8.66888C27.7552 8.66888 27.3003 8.84654 26.9896 9.15814L25.7124 10.4353L28.2084 12.9313C28.9076 12.232 29.3909 11.7487 29.4857 11.654C30.1722 10.9664 30.1721 9.84644 29.4838 9.15726Z" fill="#F8E08E"/>
<path d="M29.4849 11.6541C29.4849 11.6541 29.4849 11.654 29.485 11.6539C29.4872 11.6517 29.4882 11.6507 29.49 11.6489C29.4882 11.6508 29.4872 11.6518 29.4849 11.6541Z" fill="#F8E08E"/>
<path d="M29.49 11.6489C29.4928 11.6461 29.4961 11.6428 29.4978 11.6411C29.496 11.6429 29.4928 11.6461 29.49 11.6489Z" fill="#F8E08E"/>
<path d="M29.4978 11.6411C29.5035 11.6354 29.5036 11.6353 29.4978 11.6411V11.6411Z" fill="#F8E08E"/>
</svg>
