<svg width="38" height="30" viewBox="0 0 38 30" fill="none" xmlns="http://www.w3.org/2000/svg">
<path d="M18.8488 6.05594L5.4042 17.1396C5.4042 17.1552 5.40027 17.1782 5.39241 17.2096C5.38471 17.2407 5.38062 17.2633 5.38062 17.2794V28.5027C5.38062 28.908 5.52877 29.2592 5.82499 29.5549C6.12114 29.8508 6.47182 29.9997 6.87713 29.9997H15.8556V21.0207H21.8421V30H30.8205C31.2257 30 31.5769 29.8514 31.8726 29.5549C32.1688 29.2595 32.3175 28.9081 32.3175 28.5027V17.2794C32.3175 17.2171 32.309 17.1701 32.2939 17.1396L18.8488 6.05594Z" fill="#F8E08E"/>
<path d="M37.4374 14.6142L32.3169 10.3586V0.818569C32.3169 0.600475 32.2468 0.421119 32.1061 0.280746C31.9666 0.140537 31.7872 0.0704322 31.5686 0.0704322H27.0793C26.861 0.0704322 26.6817 0.140537 26.5413 0.280746C26.4011 0.421119 26.3311 0.600557 26.3311 0.818569V5.37807L20.6259 0.607928C20.1277 0.202615 19.5352 0 18.8492 0C18.1634 0 17.571 0.202615 17.0722 0.607928L0.259826 14.6142C0.103974 14.7387 0.0185546 14.9062 0.00266639 15.1167C-0.0131399 15.327 0.0413222 15.5107 0.166216 15.6665L1.61589 17.3968C1.74078 17.537 1.90425 17.6228 2.10695 17.6541C2.29409 17.6699 2.48122 17.6152 2.66836 17.4905L18.8488 3.9985L35.0293 17.4904C35.1543 17.5992 35.3177 17.6535 35.5204 17.6535H35.5906C35.793 17.6227 35.9562 17.5364 36.0817 17.3965L37.5315 15.6664C37.6562 15.5103 37.7108 15.3269 37.6946 15.1164C37.6786 14.9065 37.5929 14.7389 37.4374 14.6142Z" fill="#F8E08E"/>
</svg>
